<svg width="33" height="33" viewBox="0 0 33 33" fill="none" xmlns="http://www.w3.org/2000/svg">
<rect x="0.11525" y="0.611816" width="32" height="32" rx="4" fill="#4A4A68"/>
<path fill-rule="evenodd" clip-rule="evenodd" d="M17.3842 7.62745C17.3746 7.62775 17.365 7.62791 17.3554 7.62791C16.9996 7.62791 16.6931 7.4169 16.5541 7.11319L11.9281 8.30771L8.25069 9.36254C8.25231 9.38379 8.25314 9.40527 8.25314 9.42695C8.25314 9.52851 8.23492 9.62581 8.20157 9.71576L13.9129 13.2607C14.0635 13.0494 14.3106 12.9116 14.59 12.9116C15.0088 12.9116 15.3552 13.2215 15.4125 13.6245L18.7035 13.4629C18.6976 13.4164 18.6946 13.3689 18.6946 13.3208C18.6946 12.9033 18.9213 12.5388 19.2583 12.3436L17.3842 7.62745ZM17.614 7.58932L19.4661 12.25C19.5783 12.2126 19.6983 12.1923 19.8231 12.1923C20.3378 12.1923 20.7719 12.5369 20.9076 13.0079L26.7127 11.5981C26.708 11.5654 26.7055 11.5319 26.7055 11.4979C26.7055 11.3887 26.7307 11.2853 26.7757 11.1934L18.158 7.11023C18.0546 7.33855 17.8566 7.5149 17.614 7.58932ZM18.2246 6.88977C18.2321 6.84338 18.2361 6.79577 18.2361 6.74724C18.2361 6.26086 17.8418 5.86658 17.3554 5.86658C16.869 5.86658 16.4747 6.26086 16.4747 6.74724C16.4747 6.7977 16.479 6.84716 16.4871 6.8953L11.8682 8.08797L8.2021 9.13956C8.08515 8.82232 7.78014 8.59609 7.42229 8.59609C6.96342 8.59609 6.59144 8.96808 6.59144 9.42695C6.59144 9.69385 6.71729 9.93135 6.91288 10.0834L4.8387 13.6075C4.73023 13.5587 4.60993 13.5316 4.4833 13.5316C4.00389 13.5316 3.61525 13.9203 3.61525 14.3997C3.61525 14.8791 4.00389 15.2677 4.4833 15.2677C4.71084 15.2677 4.91793 15.1802 5.07273 15.0369L8.62324 18.5063C8.57681 18.6031 8.55076 18.7118 8.55076 18.8268C8.55076 19.2308 8.87278 19.5584 9.27001 19.5584C9.53261 19.5584 9.76234 19.4152 9.88789 19.2015L13.3949 20.0336C13.4412 20.3197 13.6894 20.538 13.9885 20.538C14.0979 20.538 14.2005 20.5088 14.2889 20.4578L16.5286 23.0375C16.4103 23.171 16.3385 23.3466 16.3385 23.5391C16.3385 23.9568 16.6771 24.2955 17.0949 24.2955C17.1205 24.2955 17.1458 24.2942 17.1708 24.2918L18.237 27.357L20.0776 25.6479C20.158 25.6871 20.2484 25.7092 20.3439 25.7092C20.6795 25.7092 20.9516 25.4371 20.9516 25.1015C20.9516 25.1004 20.9516 25.0992 20.9516 25.098L24.5029 23.7559C24.6289 23.9324 24.8353 24.0475 25.0686 24.0475C25.4522 24.0475 25.7631 23.7366 25.7631 23.353C25.7631 23.1358 25.6633 22.9419 25.5071 22.8145L27.8093 16.755C28.2577 16.7355 28.6153 16.3658 28.6153 15.9126C28.6153 15.4636 28.2644 15.0966 27.822 15.0708L27.6615 12.1414C27.9154 12.0381 28.0944 11.7889 28.0944 11.4979C28.0944 11.1143 27.7835 10.8034 27.4 10.8034C27.209 10.8034 27.036 10.8805 26.9105 11.0053L18.2246 6.88977ZM27.4361 12.1914C27.4241 12.192 27.4121 12.1923 27.4 12.1923C27.1309 12.1923 26.8976 12.0393 26.7823 11.8155L20.9481 13.2324C20.9504 13.2615 20.9516 13.291 20.9516 13.3208C20.9516 13.3859 20.946 13.4498 20.9354 13.5119L26.9861 15.6063C27.0878 15.3454 27.3157 15.1476 27.5948 15.088L27.4361 12.1914ZM26.9328 15.8289L20.8744 13.7317C20.7455 14.0612 20.4663 14.3152 20.1211 14.4095L20.6893 17.3262C20.6899 17.3262 20.6905 17.3262 20.6911 17.3262C21.2459 17.3262 21.6956 17.776 21.6956 18.3307C21.6956 18.5915 21.5962 18.829 21.4333 19.0076L24.7466 22.7376C24.8428 22.6872 24.9524 22.6586 25.0686 22.6586C25.1523 22.6586 25.2325 22.6734 25.3068 22.7005L27.5742 16.7325C27.2039 16.6435 26.9287 16.3102 26.9287 15.9126C26.9287 15.8843 26.9301 15.8564 26.9328 15.8289ZM24.5644 22.8755L21.2618 19.1574C21.1068 19.2646 20.9203 19.3293 20.7189 19.3348L20.5314 24.5234C20.7018 24.5786 20.8392 24.707 20.9065 24.8716L24.4026 23.5504C24.3841 23.4878 24.3742 23.4216 24.3742 23.353C24.3742 23.1681 24.4465 23 24.5644 22.8755ZM20.3046 24.4952L20.4918 19.3154C20.4062 19.2982 20.3247 19.2701 20.2485 19.2326L17.6197 22.9942C17.7625 23.1318 17.8514 23.3251 17.8514 23.5391C17.8514 23.5856 17.8472 23.6313 17.8391 23.6755L19.8757 24.7142C19.9794 24.5891 20.1322 24.5062 20.3046 24.4952ZM19.7658 24.9138L17.7638 23.8927C17.683 24.0452 17.5517 24.1667 17.3921 24.2349L18.3375 26.9529L19.8928 25.5087C19.7955 25.4009 19.7363 25.2582 19.7363 25.1015C19.7363 25.036 19.7467 24.9729 19.7658 24.9138ZM17.4338 22.8626L20.0567 19.1095C19.9113 18.9909 19.7997 18.8323 19.7387 18.6505L14.5896 19.917C14.5898 19.9235 14.59 19.93 14.59 19.9366C14.59 20.0771 14.5418 20.2063 14.4611 20.3087L16.7036 22.8916C16.8177 22.8224 16.9517 22.7826 17.0949 22.7826C17.2168 22.7826 17.3319 22.8114 17.4338 22.8626ZM14.5394 19.6949L19.6913 18.4277C19.6882 18.3958 19.6867 18.3634 19.6867 18.3307C19.6867 17.8546 20.0179 17.4559 20.4624 17.3524L19.8964 14.4469C19.8722 14.4485 19.8477 14.4493 19.8231 14.4493C19.3285 14.4493 18.9083 14.1311 18.7558 13.6884L15.4136 13.8524C15.3598 14.2593 15.0115 14.5733 14.59 14.5733C14.5638 14.5733 14.5379 14.5721 14.5123 14.5697V15.7327C14.8528 15.8456 15.0984 16.1666 15.0984 16.545C15.0984 16.9902 14.7583 17.3561 14.3237 17.3969L14.1153 19.3485C14.3058 19.3894 14.4628 19.5205 14.5394 19.6949ZM13.8868 19.3437L14.0957 17.3881C13.8857 17.3517 13.7019 17.2388 13.5742 17.0791L9.97194 18.6665C9.98328 18.7181 9.98925 18.7717 9.98925 18.8268C9.98925 18.8819 9.98325 18.9357 9.97187 18.9873L13.4023 19.8013C13.4563 19.5667 13.6474 19.3845 13.8868 19.3437ZM9.88911 18.4541L13.4561 16.8822C13.4117 16.7788 13.3871 16.6647 13.3871 16.545C13.3871 16.0724 13.7702 15.6893 14.2427 15.6893C14.2568 15.6893 14.2707 15.6897 14.2846 15.6903V14.5154C14.0569 14.4253 13.8784 14.2375 13.801 14.0037L5.34578 14.4986C5.3308 14.6307 5.28616 14.7538 5.21867 14.8611L8.75469 18.3163C8.88535 18.1799 9.06795 18.0951 9.27001 18.0951C9.53346 18.0951 9.76383 18.2392 9.88911 18.4541ZM5.34184 14.2707L13.7598 13.778C13.7594 13.7662 13.7591 13.7543 13.7591 13.7424C13.7591 13.6444 13.7761 13.5504 13.8072 13.4631L8.09351 9.91672C7.94238 10.1235 7.69802 10.2578 7.42229 10.2578C7.31189 10.2578 7.20651 10.2363 7.11014 10.1972L5.0324 13.7273C5.19561 13.8608 5.30933 14.0525 5.34184 14.2707Z" fill="#FBFCFE"/>
</svg>
