<svg width="24" height="25" viewBox="0 0 24 25" fill="none" xmlns="http://www.w3.org/2000/svg">
<path d="M12 22.3914C6.477 22.3914 2 17.9144 2 12.3914C2 6.86845 6.477 2.39145 12 2.39145C17.523 2.39145 22 6.86845 22 12.3914C22 17.9144 17.523 22.3914 12 22.3914ZM12 20.3914C14.1217 20.3914 16.1566 19.5486 17.6569 18.0483C19.1571 16.548 20 14.5132 20 12.3914C20 10.2697 19.1571 8.23489 17.6569 6.73459C16.1566 5.2343 14.1217 4.39145 12 4.39145C9.87827 4.39145 7.84344 5.2343 6.34315 6.73459C4.84285 8.23489 4 10.2697 4 12.3914C4 14.5132 4.84285 16.548 6.34315 18.0483C7.84344 19.5486 9.87827 20.3914 12 20.3914V20.3914ZM11 7.39145H13V9.39145H11V7.39145ZM11 11.3914H13V17.3914H11V11.3914Z" fill="#0E0E2C" fill-opacity="0.3"/>
</svg>
